<svg width="76" height="56" viewBox="0 0 76 56" fill="none" xmlns="http://www.w3.org/2000/svg">
<g clip-path="url(#clip0_287_3064)">
<path d="M72.4941 0H3.50586C1.56963 0 0 1.54861 0 3.45893V52.5411C0 54.4514 1.56963 56 3.50586 56H72.4941C74.4304 56 76 54.4514 76 52.5411V3.45893C76 1.54861 74.4304 0 72.4941 0Z" fill="#1D1D1B"/>
<path d="M50.7433 38.5947C49.62 38.5935 48.4981 38.5196 47.3847 38.3733C46.3446 38.2487 45.3274 37.9809 44.3626 37.5778C43.5199 37.2361 42.7791 36.6886 42.21 35.9867C41.6451 35.2242 41.3607 34.2945 41.4037 33.351V10.4736H47.2865V21.4384L46.1576 19.5706C46.6675 18.9983 47.2997 18.5447 48.0087 18.2424C48.7403 17.9173 49.5107 17.6849 50.3015 17.5506C50.94 17.4318 51.5872 17.3647 52.2368 17.35C55.2425 17.35 57.5306 18.2447 59.1012 20.0341C60.6719 21.8235 61.4572 24.4385 61.4572 27.8789C61.5054 29.6082 61.2321 31.3315 60.6508 32.9636C60.1873 34.2295 59.4142 35.363 58.4001 36.2634C57.4149 37.0924 56.2596 37.7013 55.0134 38.0482C53.6237 38.4304 52.1858 38.6144 50.7433 38.5947ZM50.6661 33.6692C51.6497 33.7166 52.6255 33.4759 53.4708 32.9774C54.1678 32.5108 54.6958 31.8371 54.9783 31.0542C55.3009 30.1479 55.4575 29.1922 55.4411 28.2318C55.4925 26.9978 55.2873 25.7665 54.8381 24.6137C54.5166 23.8069 53.9384 23.1248 53.1904 22.6698C52.4524 22.2618 51.6171 22.0563 50.7713 22.0749C50.1772 22.0799 49.5851 22.1448 49.0044 22.2686C48.3968 22.3898 47.8124 22.6046 47.2725 22.905V31.8083C47.258 32.0136 47.2902 32.2195 47.3666 32.4109C47.443 32.6024 47.5618 32.7747 47.7142 32.9151C48.0657 33.2099 48.4883 33.41 48.9413 33.4962C49.5075 33.62 50.0862 33.6803 50.6661 33.6761V33.6692Z" fill="white"/>
<path d="M14.9277 37.9998V11.5044H25.7188C30.2857 11.5044 33.642 12.6251 35.7876 14.8665C37.9332 17.1079 39.006 20.4054 39.006 24.759C39.006 29.1034 37.9332 32.394 35.7876 34.6308C33.642 36.8675 30.2857 37.9859 25.7188 37.9859L14.9277 37.9998ZM21.4486 33.0397H24.9545C27.3712 33.0397 29.2036 32.3779 30.4517 31.0542C31.6998 29.726 32.3238 27.6368 32.3238 24.7728C32.3238 21.9088 31.6998 19.7505 30.4517 18.4361C29.2036 17.1217 27.3735 16.4576 24.9545 16.4576H21.4486V33.0397Z" fill="white"/>
<path d="M36.5306 43.776V45.5124H14.5488V43.7622L36.5306 43.776Z" fill="white"/>
<path d="M58.512 43.776V45.5124H36.5303V43.7622L58.512 43.776Z" fill="white"/>
</g>
<defs>
<clipPath id="clip0_287_3064">
<rect width="76" height="56" fill="white"/>
</clipPath>
</defs>
</svg>
